<?xml version="1.0" encoding="UTF-8"?>
<svg version="1.1" xmlns="http://www.w3.org/2000/svg" width="1024" height="1024">
<path d="M0 0 C337.92 0 675.84 0 1024 0 C1024 337.92 1024 675.84 1024 1024 C686.08 1024 348.16 1024 0 1024 C0 686.08 0 348.16 0 0 Z " fill="#F9FEFD" transform="translate(0,0)"/>
<path d="M0 0 C1.00208496 0.44682129 2.00416992 0.89364258 3.03662109 1.35400391 C25.88355321 11.65966064 47.75316292 24.20257758 68 39 C68.66 39.47888672 69.32 39.95777344 70 40.45117188 C79.3405306 47.25313023 88.28190919 54.42010438 97 62 C97.70125 62.60070312 98.4025 63.20140625 99.125 63.8203125 C132.08187135 92.24561404 132.08187135 92.24561404 135 101 C135.66 101 136.32 101 137 101 C138.78817463 103.08921413 140.46610275 105.18647677 142.125 107.375 C143.13096781 108.68270925 144.1374801 109.98999984 145.14453125 111.296875 C145.63646973 111.93818359 146.1284082 112.57949219 146.63525391 113.24023438 C148.31558132 115.4069249 150.06249714 117.51436748 151.8125 119.625 C161.95844949 132.29699864 170.96739448 145.90566818 179 160 C179.38043457 160.65548828 179.76086914 161.31097656 180.15283203 161.98632812 C208.11261849 210.20467665 223.98521197 262.91072457 231 318 C231.13277344 319.03157227 231.26554688 320.06314453 231.40234375 321.12597656 C240.26059711 393.75867754 225.43830123 469.9024394 195 536 C194.6066748 536.85835449 194.21334961 537.71670898 193.80810547 538.60107422 C183.7791494 560.19701384 171.23262032 580.92752358 157 600 C155.95823278 601.41138412 154.91656812 602.82284394 153.875 604.234375 C150.94918833 608.18135766 147.98578404 612.09824544 145 616 C144.58137695 616.54930176 144.16275391 617.09860352 143.73144531 617.66455078 C138.91892699 623.95314455 138.91892699 623.95314455 137 626 C136.34 626 135.68 626 135 626 C134.77054688 626.5465625 134.54109375 627.093125 134.3046875 627.65625 C132.63473174 630.65617053 130.46042962 633.01464642 128.125 635.5 C127.61396729 636.0475293 127.10293457 636.59505859 126.57641602 637.15917969 C103.99084948 661.13819182 103.99084948 661.13819182 92.5390625 670.01953125 C90.13525808 671.8944987 87.83371643 673.85972433 85.53637695 675.86279297 C36.18739115 718.67863314 -28.31100133 745.6015269 -92 758 C-92.804375 758.16048828 -93.60875 758.32097656 -94.4375 758.48632812 C-98.78884683 759.34050976 -103.14341659 760.0574045 -107.53662109 760.66015625 C-109.25748092 760.89756327 -110.9764809 761.14867572 -112.69384766 761.41015625 C-130.76655232 764.09431108 -148.76232426 764.29502965 -167 764.3125 C-168.17605804 764.31599457 -169.35211609 764.31948914 -170.56381226 764.3230896 C-185.48733604 764.34765946 -200.18332212 763.82974903 -215 762 C-215.70334473 761.91330048 -216.40668945 761.82660095 -217.13134766 761.73727417 C-292.22471657 752.2229624 -364.9048794 722.19379352 -423.12744141 673.56396484 C-424.93723765 672.05241924 -426.75505228 670.55102589 -428.57421875 669.05078125 C-434.30700044 664.29354799 -439.76825534 659.38264378 -444.96484375 654.03515625 C-446.86252974 652.13747026 -448.81959614 650.41071738 -450.875 648.6875 C-455.89092134 644.37818662 -460.22010692 639.43963533 -464.62402344 634.52441406 C-465.91477501 633.09441888 -467.22624474 631.6832018 -468.5390625 630.2734375 C-475.13779114 623.17194858 -481.14371403 615.71451079 -487 608 C-487.68280029 607.1025708 -487.68280029 607.1025708 -488.37939453 606.18701172 C-495.7567844 596.44047071 -502.50277588 586.35049113 -509 576 C-509.55953369 575.12069824 -509.55953369 575.12069824 -510.13037109 574.22363281 C-553.42733211 505.98493226 -572.94445385 421.51365385 -568.3125 341.1875 C-568.27120972 340.46988495 -568.22991943 339.7522699 -568.18737793 339.01290894 C-563.16116963 255.08785331 -532.35690884 171.37441986 -477.14477539 107.42260742 C-475.90246132 105.98186047 -475.90246132 105.98186047 -475 104 C-474.34 104 -473.68 104 -473 104 C-472.72937744 103.40791748 -472.45875488 102.81583496 -472.17993164 102.20581055 C-471.01192598 100.02229489 -469.81268762 98.50289596 -468.12109375 96.70703125 C-467.53811523 96.08513916 -466.95513672 95.46324707 -466.35449219 94.82250977 C-465.72188477 94.15920654 -465.08927734 93.49590332 -464.4375 92.8125 C-463.77782227 92.11632568 -463.11814453 91.42015137 -462.43847656 90.70288086 C-441.06681328 68.26163246 -441.06681328 68.26163246 -430.4609375 59.96484375 C-427.92018991 57.93627861 -425.563473 55.78084373 -423.1875 53.5625 C-417.7757198 48.64424692 -411.90824326 44.50005662 -405.91259766 40.34326172 C-403.97804573 38.984581 -402.07137001 37.59332986 -400.16796875 36.19140625 C-388.31557714 27.52540689 -375.78118765 20.20415435 -363 13 C-362.30729004 12.60329102 -361.61458008 12.20658203 -360.90087891 11.79785156 C-316.50105995 -13.59050129 -265.52096502 -27.36857015 -215 -33 C-213.98921387 -33.11859375 -212.97842773 -33.2371875 -211.93701172 -33.359375 C-140.19112746 -41.53804069 -65.74544523 -29.38385966 0 0 Z " fill="#02AC5F" transform="translate(680,148)"/>
<path d="M0 0 C14.18805747 31.12856767 25.70073368 65.49301509 27 100 C27.03254883 100.79519043 27.06509766 101.59038086 27.09863281 102.40966797 C28.90293145 153.01204349 11.17859368 200.69051751 -23 237.8125 C-27.7698099 242.89840495 -32.70483919 247.52035019 -38.2109375 251.81640625 C-40.86299695 253.89273851 -43.4280116 256.03984895 -45.98535156 258.23022461 C-48.64196951 260.50465842 -51.32201468 262.75077349 -54 265 C-54.67289063 265.5775 -55.34578125 266.155 -56.0390625 266.75 C-79.86483439 286.06251995 -114.35925447 290.05022156 -143.859375 287.69140625 C-146.95174454 287.25678217 -149.95463107 286.68944316 -153 286 C-154.17175781 285.74347656 -155.34351563 285.48695313 -156.55078125 285.22265625 C-170.43342946 281.86371852 -183.35897195 276.33847934 -195 268 C-195.78117187 267.44183594 -196.56234375 266.88367188 -197.3671875 266.30859375 C-209.16500601 257.35385609 -219.8991625 246.40789436 -228 234 C-228.66 233.01 -229.32 232.02 -230 231 C-230 230.01 -230 229.02 -230 228 C-229.20263931 227.75566223 -228.40527863 227.51132446 -227.58375549 227.25958252 C-216.52558435 223.864941 -205.49541999 220.38605681 -194.47387695 216.87451172 C-192.12974036 216.1291135 -189.78469523 215.38656605 -187.4387207 214.64697266 C-168.99201486 208.82933487 -150.42402945 202.91804505 -133.3125 193.75 C-132.44931152 193.29093262 -131.58612305 192.83186523 -130.69677734 192.35888672 C-113.08094186 182.76822302 -97.91135595 169.97608724 -83.6875 155.9375 C-83.1419043 155.40133057 -82.59630859 154.86516113 -82.03417969 154.31274414 C-77.36750867 149.60641091 -75.70936669 146.75622216 -75.625 140.125 C-75.71749541 134.70741167 -76.27112445 131.9360353 -80 128 C-84.73602769 125.08708835 -89.6188011 125.21862043 -95 126 C-102.10399994 128.7169684 -107.17273683 135.14403244 -112.35913086 140.4699707 C-123.317396 151.55908948 -136.13834399 159.98148269 -150 167 C-150.61842773 167.31855957 -151.23685547 167.63711914 -151.87402344 167.96533203 C-170.96816461 177.62219642 -192.29524689 183.56831491 -212.75390625 189.62890625 C-213.78633957 189.93501076 -213.78633957 189.93501076 -214.83963013 190.24729919 C-218.07056774 191.20150229 -221.30463492 192.13951117 -224.54589844 193.05834961 C-230.59620892 194.8073605 -235.63678167 196.7220712 -241 200 C-241.99 200 -242.98 200 -244 200 C-250.91530714 171.41673047 -247.22120075 141.32951238 -232 116 C-228.68135832 111.04704609 -224.92091223 106.48355434 -221 102 C-220.29359375 101.18015625 -219.5871875 100.3603125 -218.859375 99.515625 C-208.82924489 88.7198361 -195.37449899 80.89132547 -182 75 C-180.85144531 74.48953125 -179.70289063 73.9790625 -178.51953125 73.453125 C-162.2496906 66.62464599 -144.40964513 64.00056512 -127.1628418 60.75 C-113.23980765 58.12489077 -99.55044374 55.1734583 -86 51 C-84.90921143 50.66863037 -84.90921143 50.66863037 -83.79638672 50.33056641 C-54.17055618 41.14909223 -25.33172699 24.2790167 -3.84765625 1.7421875 C-2 0 -2 0 0 0 Z " fill="#01AB5F" transform="translate(630,341)"/>
<path d="M0 0 C3.0311322 2.40109327 4.42179591 5.08185727 6.01171875 8.515625 C6.34236328 9.20438721 6.67300781 9.89314941 7.01367188 10.6027832 C8.16102235 13.02202516 9.27693428 15.45392432 10.38671875 17.890625 C11.03398926 19.30625732 11.03398926 19.30625732 11.69433594 20.75048828 C42.2626263 88.01160548 57.61786702 160.26992459 32.38671875 231.890625 C32.05317383 232.84727051 32.05317383 232.84727051 31.71289062 233.82324219 C25.76115309 250.56805599 17.12472987 266.74256981 6.38671875 280.890625 C5.95359375 281.46361328 5.52046875 282.03660156 5.07421875 282.62695312 C-0.19691375 289.56777674 -5.6692019 296.25174019 -11.57421875 302.66796875 C-13.4257842 304.68624603 -15.21161125 306.74411635 -16.98828125 308.828125 C-20.01767294 312.29945148 -23.19237607 315.61048824 -26.42578125 318.890625 C-26.90644043 319.38425537 -27.38709961 319.87788574 -27.88232422 320.38647461 C-29.08716285 321.59452102 -30.34645483 322.74775008 -31.61328125 323.890625 C-32.27328125 323.890625 -32.93328125 323.890625 -33.61328125 323.890625 C-33.61328125 324.550625 -33.61328125 325.210625 -33.61328125 325.890625 C-35.53012541 327.63797329 -37.44454407 329.23937739 -39.48828125 330.828125 C-40.11033447 331.31249023 -40.7323877 331.79685547 -41.37329102 332.29589844 C-70.80596884 354.71321519 -105.57677081 366.11036462 -142.48828125 366.140625 C-143.59526367 366.14163712 -143.59526367 366.14163712 -144.72460938 366.14266968 C-155.94416451 366.12637281 -166.69380157 365.62254797 -177.61328125 362.890625 C-178.62189209 362.65714355 -178.62189209 362.65714355 -179.65087891 362.41894531 C-216.89054831 353.64121096 -247.37274753 327.90327927 -268.61328125 296.890625 C-269.20109375 295.71306641 -269.20109375 295.71306641 -269.80078125 294.51171875 C-270.50995634 292.6926087 -270.50995634 292.6926087 -272.61328125 291.890625 C-272.99226563 292.695 -272.99226563 292.695 -273.37890625 293.515625 C-274.88588446 296.41512737 -276.61676565 299.12869335 -278.36328125 301.890625 C-285.29125777 313.08076187 -290.16622748 324.21631897 -293.61328125 336.890625 C-293.91234375 337.98761719 -294.21140625 339.08460938 -294.51953125 340.21484375 C-296.56152506 348.67890808 -297.27211407 357.13002636 -297.79174805 365.80883789 C-298.22620286 372.12921101 -298.79340149 377.69045611 -303.1484375 382.6328125 C-308.59626132 386.67339794 -311.8748348 387.66388935 -318.61328125 386.890625 C-322.95745739 385.48764205 -325.64693622 383.29286671 -327.98828125 379.390625 C-336.26899424 361.55524317 -328.46854298 333.50740078 -322.234375 315.87109375 C-320.80612448 312.15452906 -319.27130863 308.50883031 -317.61328125 304.890625 C-317.15864502 303.89289063 -317.15864502 303.89289063 -316.69482422 302.875 C-309.9995391 288.38840444 -301.33214518 275.11495067 -288.92578125 264.828125 C-286.42440519 262.26401092 -286.42440519 262.26401092 -286.58984375 259.984375 C-287.10934169 257.55418126 -287.84639673 255.25459929 -288.61328125 252.890625 C-289.15362215 250.70786177 -289.67348662 248.51995613 -290.17578125 246.328125 C-290.42457031 245.29558594 -290.67335938 244.26304687 -290.9296875 243.19921875 C-297.85022258 209.70382894 -291.29967221 172.06858429 -272.75390625 143.34375 C-242.90148757 99.02615378 -200.58564089 84.5200511 -150.49758911 74.41012573 C-105.7655967 65.37434076 -68.26283514 51.69944501 -35.61328125 18.890625 C-34.88367188 18.17261719 -34.1540625 17.45460938 -33.40234375 16.71484375 C-29.73959492 13.09837514 -26.21573497 9.4767001 -22.92578125 5.515625 C-16.98768796 -1.27463202 -8.55996895 -3.63382837 0 0 Z M-17.9453125 47.109375 C-18.82574219 48.0271875 -19.70617187 48.945 -20.61328125 49.890625 C-56.06291822 84.66678009 -102.34278618 98.86624345 -150.02243042 107.57119751 C-186.1941869 114.17854987 -220.72435461 125.73912283 -242.89135742 157.20483398 C-254.80966831 174.74529346 -260.81935767 194.25123949 -260.80078125 215.453125 C-260.80070068 216.32066406 -260.80062012 217.18820312 -260.80053711 218.08203125 C-260.72183694 227.09527122 -259.98820911 236.16116042 -257.61328125 244.890625 C-254.41462214 244.20110752 -251.64788079 243.0634801 -248.66796875 241.72265625 C-240.51725392 238.28187433 -232.06777867 235.90125734 -223.58721924 233.41543579 C-181.48142085 221.34842664 -181.48142085 221.34842664 -143.61328125 199.890625 C-142.80914795 199.3020874 -142.80914795 199.3020874 -141.98876953 198.70166016 C-134.16837014 192.95601517 -127.13945951 186.74262123 -120.49462891 179.66162109 C-116.20754899 175.17131326 -112.0381714 171.52262644 -105.734375 170.359375 C-99.90575975 170.42724825 -96.0963067 170.75244766 -91.61328125 174.890625 C-89.52781762 178.16675126 -89.28724688 180.91692621 -89.23828125 184.765625 C-89.20992187 185.77367187 -89.1815625 186.78171875 -89.15234375 187.8203125 C-90.196499 194.77544831 -95.86909421 199.46728482 -100.67578125 204.203125 C-101.34625488 204.86610596 -102.01672852 205.52908691 -102.70751953 206.2121582 C-108.08150661 211.47116277 -113.59907713 216.36807045 -119.61328125 220.890625 C-120.48098145 221.55626465 -120.48098145 221.55626465 -121.36621094 222.23535156 C-129.78222632 228.64817318 -138.51192302 234.18649943 -147.86328125 239.140625 C-148.71760742 239.59928955 -149.57193359 240.0579541 -150.45214844 240.53051758 C-168.5739006 249.84427838 -188.44743809 255.57701283 -207.80078125 261.703125 C-210.17399405 262.45976624 -212.54704177 263.21692545 -214.91992188 263.97460938 C-224.46419579 267.0166717 -234.0086594 270.04371114 -243.61328125 272.890625 C-241.26366216 283.01529941 -232.59087851 290.60189395 -225.61328125 297.890625 C-224.76121094 298.79554688 -223.90914062 299.70046875 -223.03125 300.6328125 C-217.65923688 306.19940248 -212.18336241 310.8089397 -205.61328125 314.890625 C-205.04899414 315.24511719 -204.48470703 315.59960938 -203.90332031 315.96484375 C-175.86042035 333.36361493 -142.63329601 336.98879193 -110.61328125 329.890625 C-90.41474046 324.87315309 -74.82440378 316.15573474 -59.40136719 302.45654297 C-56.92100157 300.2843604 -54.36766413 298.20940171 -51.80078125 296.140625 C-14.00046926 265.41734022 7.67688614 221.39877625 13.07421875 173.3046875 C16.5666188 130.70137556 6.53982713 82.64581539 -13.61328125 44.890625 C-15.90826738 44.66086118 -15.90826738 44.66086118 -17.9453125 47.109375 Z " fill="#FDFEFD" transform="translate(643.61328125,296.109375)"/>
<path d="M0 0 C0.66 0.33 1.32 0.66 2 1 C2 1.66 2 2.32 2 3 C1.34 3 0.68 3 0 3 C-0.226875 3.639375 -0.45375 4.27875 -0.6875 4.9375 C-2.14196123 8.33124288 -3.89372717 11.45753297 -5.703125 14.671875 C-9.54519808 21.56909053 -12.50137364 28.50412091 -15 36 C-15.66 36 -16.32 36 -17 36 C-17.33 36.99 -17.66 37.98 -18 39 C-18.66 39 -19.32 39 -20 39 C-19.938125 40.11375 -19.87625 41.2275 -19.8125 42.375 C-19.9053125 44.169375 -19.9053125 44.169375 -20 46 C-20.99 46.66 -21.98 47.32 -23 48 C-23.26939388 43.40130289 -22.65796094 40.60087872 -20.5078125 36.54296875 C-19.9718042 35.52001709 -19.4357959 34.49706543 -18.88354492 33.44311523 C-18.3032251 32.36876221 -17.72290527 31.29440918 -17.125 30.1875 C-16.54016846 29.08414307 -15.95533691 27.98078613 -15.3527832 26.84399414 C-10.491939 17.74206502 -5.36880829 8.81066282 0 0 Z M-24 48 C-23.34 48.66 -22.68 49.32 -22 50 C-22.33 50.66 -22.66 51.32 -23 52 C-23.66 52 -24.32 52 -25 52 C-24.67 50.68 -24.34 49.36 -24 48 Z " fill="#0CB242" transform="translate(172,297)"/>
<path d="M0 0 C1.32 1.65 2.64 3.3 4 5 C3.71125 5.515625 3.4225 6.03125 3.125 6.5625 C1.86248885 9.1291548 1.86248885 9.1291548 1 12.5625 C0 16 0 16 -2 19 C-3.69843394 12.20626425 -1.92258516 6.61499641 0 0 Z " fill="#10B754" transform="translate(124,409)"/>
<path d="M0 0 C0.99 0 1.98 0 3 0 C2.67 1.98 2.34 3.96 2 6 C1.34 6 0.68 6 0 6 C-0.33 6.99 -0.66 7.98 -1 9 C-1.66 9 -2.32 9 -3 9 C-2.938125 10.11375 -2.87625 11.2275 -2.8125 12.375 C-2.9053125 14.169375 -2.9053125 14.169375 -3 16 C-3.99 16.66 -4.98 17.32 -6 18 C-6.36020428 13.00216563 -5.34389935 10.01981128 -3 5.625 C-2.443125 4.56539063 -1.88625 3.50578125 -1.3125 2.4140625 C-0.879375 1.61742187 -0.44625 0.82078125 0 0 Z M-7 18 C-6.34 18.66 -5.68 19.32 -5 20 C-5.33 20.66 -5.66 21.32 -6 22 C-6.66 22 -7.32 22 -8 22 C-7.67 20.68 -7.34 19.36 -7 18 Z " fill="#12B850" transform="translate(155,327)"/>
<path d="M0 0 C0 3.8148669 -1.06277405 5.72675616 -3 9 C-4.66666667 10.33333333 -6.33333333 11.66666667 -8 13 C-9.80979141 16.11662908 -9.80979141 16.11662908 -11 19 C-11.66 19 -12.32 19 -13 19 C-11.57667134 14.94388206 -9.61408397 11.82462748 -7.0625 8.375 C-6.37285156 7.43398438 -5.68320313 6.49296875 -4.97265625 5.5234375 C-3.40343854 3.51608177 -1.85661677 1.73439435 0 0 Z " fill="#0DB347" transform="translate(197,263)"/>
<path d="M0 0 C0.33 0.99 0.66 1.98 1 3 C-3.625 7.875 -3.625 7.875 -7 9 C-7.33 9.66 -7.66 10.32 -8 11 C-10.90423009 12.88382493 -13.90096565 14.4670022 -17 16 C-12.04989131 9.7120241 -6.2821957 4.92962331 0 0 Z " fill="#08AF44" transform="translate(260,199)"/>
<path d="M0 0 C1 2 1 2 0.3515625 4.5703125 C-1.3373003 8.85592389 -3.43110752 12.83001073 -5.625 16.875 C-6.04523437 17.65875 -6.46546875 18.4425 -6.8984375 19.25 C-7.9281022 21.16892057 -8.96347567 23.08477603 -10 25 C-10.66 24.67 -11.32 24.34 -12 24 C-10.19092015 20.18586777 -8.37716758 16.37397651 -6.5625 12.5625 C-6.04623047 11.47388672 -5.52996094 10.38527344 -4.99804688 9.26367188 C-4.25844727 7.71196289 -4.25844727 7.71196289 -3.50390625 6.12890625 C-2.82050171 4.69140015 -2.82050171 4.69140015 -2.12329102 3.22485352 C-1 1 -1 1 0 0 Z " fill="#079A4C" transform="translate(674,533)"/>
<path d="M0 0 C0.33 0.66 0.66 1.32 1 2 C-8.41002278 4.29612756 -8.41002278 4.29612756 -13 4 C-13.33 4.66 -13.66 5.32 -14 6 C-14 4.68 -14 3.36 -14 2 C-9.15758367 0.66416101 -5.06562383 -0.25328119 0 0 Z " fill="#0BB052" transform="translate(427,122)"/>
<path d="M0 0 C1.41000664 2.82001327 1.24548451 4.87007255 1 8 C-0.41511093 10.83022185 -1.76583825 12.76583825 -4 15 C-5.3480932 11.339671 -4.6336844 9.33449773 -3.125 5.8125 C-2.75632813 4.93207031 -2.38765625 4.05164063 -2.0078125 3.14453125 C-1 1 -1 1 0 0 Z " fill="#0EB64C" transform="translate(140,362)"/>
<path d="M0 0 C-1.65 0.33 -3.3 0.66 -5 1 C-5.66 3.64 -6.32 6.28 -7 9 C-11 4.375 -11 4.375 -11 1 C-3.375 -1.125 -3.375 -1.125 0 0 Z " fill="#09A44C" transform="translate(411,568)"/>
<path d="M0 0 C0.99 0.33 1.98 0.66 3 1 C0.56686628 2.03251062 -1.87056892 3.05119521 -4.3125 4.0625 C-5.34793945 4.50432617 -5.34793945 4.50432617 -6.40429688 4.95507812 C-11.66015625 7.11328125 -11.66015625 7.11328125 -15 6 C-10.53491998 3.23165039 -7.29200336 1.61534923 -2 1 C-1.34 0.67 -0.68 0.34 0 0 Z " fill="#099456" transform="translate(667,880)"/>
<path d="M0 0 C-2.92751593 1.95167729 -4.0847289 2.36553384 -7.4375 2.75 C-8.19933594 2.84796875 -8.96117187 2.9459375 -9.74609375 3.046875 C-12.33097489 2.99311664 -13.79640849 2.30508837 -16 1 C-10.59255982 0.22750855 -5.46137814 -0.09752461 0 0 Z " fill="#0CAF50" transform="translate(451,118)"/>
<path d="M0 0 C0.66 0 1.32 0 2 0 C1.88590407 1.45922693 1.75834456 2.91740598 1.625 4.375 C1.55539062 5.18710937 1.48578125 5.99921875 1.4140625 6.8359375 C1 9 1 9 -1 11 C-1.0270043 9.54176788 -1.04639787 8.08339325 -1.0625 6.625 C-1.07410156 5.81289063 -1.08570313 5.00078125 -1.09765625 4.1640625 C-1 2 -1 2 0 0 Z " fill="#10AD54" transform="translate(354,471)"/>
<path d="M0 0 C0.33 0 0.66 0 1 0 C0.67 3.3 0.34 6.6 0 10 C-0.99 10 -1.98 10 -3 10 C-2.25 2.25 -2.25 2.25 0 0 Z " fill="#16B957" transform="translate(121,429)"/>
<path d="M0 0 C0.66 0.99 1.32 1.98 2 3 C0.71937515 4.7074998 -0.61767557 6.37373596 -2 8 C-2.66 8 -3.32 8 -4 8 C-4 8.66 -4 9.32 -4 10 C-4.66 9.67 -5.32 9.34 -6 9 C-4.02 6.03 -2.04 3.06 0 0 Z " fill="#0CB447" transform="translate(181,284)"/>
<path d="M0 0 C0.66 0.33 1.32 0.66 2 1 C1.38125 1.5775 0.7625 2.155 0.125 2.75 C-1.81347053 4.80249821 -2.90014249 6.43366582 -4 9 C-4.66 8.01 -5.32 7.02 -6 6 C-4.02 4.02 -2.04 2.04 0 0 Z " fill="#0EAB52" transform="translate(413,439)"/>
<path d="M0 0 C0.99 0.33 1.98 0.66 3 1 C1.35 2.98 -0.3 4.96 -2 7 C-2.6875 5.1875 -2.6875 5.1875 -3 3 C-1.5625 1.25 -1.5625 1.25 0 0 Z M-5 8 C-4.67 8.66 -4.34 9.32 -4 10 C-4.66 9.67 -5.32 9.34 -6 9 C-5.67 8.67 -5.34 8.34 -5 8 Z " fill="#12B854" transform="translate(218,238)"/>
<path d="M0 0 C2.82328089 2.82328089 2.79396942 5.08541907 3 9 C2.01 9.99 1.02 10.98 0 12 C0 8.04 0 4.08 0 0 Z " fill="#0AA554" transform="translate(650,404)"/>
<path d="M0 0 C0 0.99 0 1.98 0 3 C-4.34285714 7 -4.34285714 7 -7 7 C-5.66667905 3.00003714 -3.5042173 2.16217663 0 0 Z " fill="#089E52" transform="translate(600,629)"/>
<path d="M0 0 C0.99 0 1.98 0 3 0 C2.34 2.31 1.68 4.62 1 7 C0.34 7 -0.32 7 -1 7 C-0.67 4.69 -0.34 2.38 0 0 Z " fill="#0CB74D" transform="translate(133,379)"/>
<path d="M0 0 C0.99 0 1.98 0 3 0 C2.67 1.98 2.34 3.96 2 6 C1.34 6 0.68 6 0 6 C-0.33 6.99 -0.66 7.98 -1 9 C-2.60031344 5.79937313 -1.03173691 3.27728194 0 0 Z " fill="#10BD5A" transform="translate(155,327)"/>
<path d="M0 0 C0.66 0 1.32 0 2 0 C1.67 2.31 1.34 4.62 1 7 C0.01 7 -0.98 7 -2 7 C-1.125 1.125 -1.125 1.125 0 0 Z " fill="#0EB64D" transform="translate(158,322)"/>
<path d="M0 0 C0 0.99 0 1.98 0 3 C-1.8125 4.75 -1.8125 4.75 -4 6 C-4.99 5.67 -5.98 5.34 -7 5 C-2.25 1.125 -2.25 1.125 0 0 Z " fill="#0CB04B" transform="translate(300,171)"/>
<path d="M0 0 C1.65 0.33 3.3 0.66 5 1 C3.68 2.32 2.36 3.64 1 5 C0.34 4.67 -0.32 4.34 -1 4 C-0.67 2.68 -0.34 1.36 0 0 Z " fill="#07995F" transform="translate(763,820)"/>
<path d="M0 0 C0.33 0.99 0.66 1.98 1 3 C-0.98 3.99 -0.98 3.99 -3 5 C-3.99 4.34 -4.98 3.68 -6 3 C-4.02 2.01 -2.04 1.02 0 0 Z " fill="#13AA5C" transform="translate(494,536)"/>
</svg>
